{
  "accessors": [
    {
      "bufferView": 2,
      "componentType": 5126,
      "count": 4209,
      "max": [
        74.22775268554688,
        75.372802734375,
        846.5886840820313
      ],
      "min": [
        -74.22772216796875,
        -75.37281799316406,
        -1.6124992370605469
      ],
      "type": "VEC3"
    },
    {
      "bufferView": 2,
      "byteOffset": 50508,
      "componentType": 5126,
      "count": 4209,
      "max": [
        0.9852404594421387,
        1.0,
        1.0
      ],
      "min": [
        -0.9852405190467834,
        -1.0,
        -0.9999178647994995
      ],
      "type": "VEC3"
    },
    {
      "bufferView": 1,
      "componentType": 5126,
      "count": 4209,
      "max": [
        1.5829267501831055,
        1.6402466297149658
      ],
      "min": [
        -0.3349831700325012,
        -0.01483896654099226
      ],
      "type": "VEC2"
    },
    {
      "bufferView": 0,
      "componentType": 5125,
      "count": 13359,
      "type": "SCALAR"
    },
    {
      "bufferView": 2,
      "byteOffset": 101016,
      "componentType": 5126,
      "count": 370,
      "max": [
        45.13505935668945,
        45.831329345703125,
        663.6866455078125
      ],
      "min": [
        -45.13506317138672,
        -45.83135223388672,
        369.350830078125
      ],
      "type": "VEC3"
    },
    {
      "bufferView": 2,
      "byteOffset": 105456,
      "componentType": 5126,
      "count": 370,
      "max": [
        0.9848077893257141,
        1.0,
        0.5660879015922546
      ],
      "min": [
        -0.9848077893257141,
        -0.997576117515564,
        -0.511330783367157
      ],
      "type": "VEC3"
    },
    {
      "bufferView": 1,
      "byteOffset": 33672,
      "componentType": 5126,
      "count": 370,
      "max": [
        1.0556615591049194,
        0.9967529773712158
      ],
      "min": [
        -0.016034603118896484,
        0.0014323098585009575
      ],
      "type": "VEC2"
    },
    {
      "bufferView": 0,
      "byteOffset": 53436,
      "componentType": 5125,
      "count": 1380,
      "type": "SCALAR"
    },
    {
      "bufferView": 2,
      "byteOffset": 109896,
      "componentType": 5126,
      "count": 85,
      "max": [
        44.77135467529297,
        45.462005615234375,
        807.2357177734375
      ],
      "min": [
        -44.7713623046875,
        -45.462066650390625,
        787.2356567382813
      ],
      "type": "VEC3"
    },
    {
      "bufferView": 2,
      "byteOffset": 110916,
      "componentType": 5126,
      "count": 85,
      "max": [
        0.9848078489303589,
        1.0,
        0.10343462973833084
      ],
      "min": [
        -0.9848078489303589,
        -0.9975746870040894,
        -0.10343468189239502
      ],
      "type": "VEC3"
    },
    {
      "bufferView": 3,
      "componentType": 5126,
      "count": 85,
      "max": [
        0.1014641746878624,
        0.1032525822520256,
        -0.9946357607841492,
        1.0
      ],
      "min": [
        -0.10146418958902359,
        -0.1032523438334465,
        -1.0,
        1.0
      ],
      "type": "VEC4"
    },
    {
      "bufferView": 1,
      "byteOffset": 36632,
      "componentType": 5126,
      "count": 85,
      "max": [
        0.999500036239624,
        0.7362135052680969
      ],
      "min": [
        7.80782283982262e-05,
        -0.06500188261270523
      ],
      "type": "VEC2"
    },
    {
      "bufferView": 0,
      "byteOffset": 58956,
      "componentType": 5125,
      "count": 276,
      "type": "SCALAR"
    },
    {
      "bufferView": 2,
      "byteOffset": 111936,
      "componentType": 5126,
      "count": 146,
      "max": [
        45.256290435791016,
        45.954429626464844,
        661.3975830078125
      ],
      "min": [
        -45.256290435791016,
        -45.95445251464844,
        371.890869140625
      ],
      "type": "VEC3"
    },
    {
      "bufferView": 2,
      "byteOffset": 113688,
      "componentType": 5126,
      "count": 146,
      "max": [
        0.9847161769866943,
        0.9999067783355713,
        0.25298410654067993
      ],
      "min": [
        -0.9847160577774048,
        -0.9974794983863831,
        -0.2529838979244232
      ],
      "type": "VEC3"
    },
    {
      "bufferView": 1,
      "byteOffset": 37312,
      "componentType": 5126,
      "count": 146,
      "max": [
        1.055128574371338,
        0.8329688310623169
      ],
      "min": [
        0.0004273001104593277,
        0.458801805973053
      ],
      "type": "VEC2"
    },
    {
      "bufferView": 0,
      "byteOffset": 60060,
      "componentType": 5125,
      "count": 552,
      "type": "SCALAR"
    },
    {
      "bufferView": 2,
      "byteOffset": 115440,
      "componentType": 5126,
      "count": 57,
      "max": [
        59.39601135253906,
        60.312286376953125,
        27.304168701171875
      ],
      "min": [
        -59.39600372314453,
        -60.312286376953125,
        27.304157257080078
      ],
      "type": "VEC3"
    },
    {
      "bufferView": 2,
      "byteOffset": 116124,
      "componentType": 5126,
      "count": 57,
      "max": [
        1.9256215466612048e-07,
        1.845191519578293e-07,
        -1.0
      ],
      "min": [
        -1.9278687091173197e-07,
        -1.953006716348682e-07,
        -1.0
      ],
      "type": "VEC3"
    },
    {
      "bufferView": 1,
      "byteOffset": 38480,
      "componentType": 5126,
      "count": 57,
      "max": [
        0.9843230843544006,
        0.999500036239624
      ],
      "min": [
        0.0005000000237487257,
        0.0005000000237487257
      ],
      "type": "VEC2"
    },
    {
      "bufferView": 0,
      "byteOffset": 62268,
      "componentType": 5125,
      "count": 57,
      "type": "SCALAR"
    },
    {
      "bufferView": 2,
      "byteOffset": 116808,
      "componentType": 5126,
      "count": 218,
      "max": [
        22.901506423950195,
        22.553586959838867,
        64.67913055419922
      ],
      "min": [
        -22.901506423950195,
        -22.5535831451416,
        39.34480285644531
      ],
      "type": "VEC3"
    },
    {
      "bufferView": 2,
      "byteOffset": 119424,
      "componentType": 5126,
      "count": 218,
      "max": [
        1.0,
        0.9848078489303589,
        0.9906729459762573
      ],
      "min": [
        -1.0,
        -0.9848079085350037,
        -1.0
      ],
      "type": "VEC3"
    },
    {
      "bufferView": 1,
      "byteOffset": 38936,
      "componentType": 5126,
      "count": 218,
      "max": [
        1.1858854293823242,
        1.1905421018600464
      ],
      "min": [
        -0.1858857274055481,
        -0.19054251909255981
      ],
      "type": "VEC2"
    },
    {
      "bufferView": 0,
      "byteOffset": 62496,
      "componentType": 5125,
      "count": 528,
      "type": "SCALAR"
    },
    {
      "bufferView": 2,
      "byteOffset": 122040,
      "componentType": 5126,
      "count": 57,
      "max": [
        59.39601135253906,
        60.312286376953125,
        13.161543846130371
      ],
      "min": [
        -59.39600372314453,
        -60.312286376953125,
        13.16153335571289
      ],
      "type": "VEC3"
    },
    {
      "bufferView": 2,
      "byteOffset": 122724,
      "componentType": 5126,
      "count": 57,
      "max": [
        1.7651530015427852e-07,
        1.6914256661948457e-07,
        -1.0
      ],
      "min": [
        -1.767213149150848e-07,
        -1.7902563342886424e-07,
        -1.0
      ],
      "type": "VEC3"
    },
    {
      "bufferView": 1,
      "byteOffset": 40680,
      "componentType": 5126,
      "count": 57,
      "max": [
        0.9843230843544006,
        0.999500036239624
      ],
      "min": [
        0.0005000000237487257,
        0.0005000000237487257
      ],
      "type": "VEC2"
    },
    {
      "bufferView": 0,
      "byteOffset": 64608,
      "componentType": 5125,
      "count": 57,
      "type": "SCALAR"
    },
    {
      "bufferView": 4,
      "componentType": 5126,
      "count": 11,
      "max": [
        3.3333332538604736
      ],
      "min": [
        0.5
      ],
      "type": "SCALAR"
    },
    {
      "bufferView": 5,
      "componentType": 5126,
      "count": 11,
      "max": [
        -1.051034927368164,
        165.08299255371094,
        7.2160073614213616e-06
      ],
      "min": [
        -1.051034927368164,
        165.08299255371094,
        -9.039833068847656
      ],
      "type": "VEC3"
    },
    {
      "bufferView": 4,
      "byteOffset": 44,
      "componentType": 5126,
      "count": 6,
      "max": [
        3.3333332538604736
      ],
      "min": [
        0.5
      ],
      "type": "SCALAR"
    },
    {
      "bufferView": 5,
      "byteOffset": 132,
      "componentType": 5126,
      "count": 6,
      "max": [
        1.0,
        1.0,
        1.0
      ],
      "min": [
        1.000000013351432e-10,
        1.000000013351432e-10,
        1.000000013351432e-10
      ],
      "type": "VEC3"
    }
  ],
  "animations": [
    {
      "channels": [
        {
          "sampler": 0,
          "target": {
            "node": 11,
            "path": "translation"
          }
        },
        {
          "sampler": 1,
          "target": {
            "node": 13,
            "path": "scale"
          }
        }
      ],
      "name": "Take 001",
      "samplers": [
        {
          "input": 29,
          "interpolation": "LINEAR",
          "output": 30
        },
        {
          "input": 31,
          "interpolation": "LINEAR",
          "output": 32
        }
      ]
    }
  ],
  "asset": {
    "extras": {
      "author": "Anthony Yanez (https://sketchfab.com/paulyanez)",
      "license": "CC-BY-4.0 (http://creativecommons.org/licenses/by/4.0/)",
      "source": "https://sketchfab.com/3d-models/animated-flashlight-9b6cf39001cf4cb9ad23ba6026adc338",
      "title": "Animated Flashlight"
    },
    "generator": "Sketchfab-12.66.0",
    "version": "2.0"
  },
  "bufferViews": [
    {
      "buffer": 0,
      "byteLength": 64836,
      "name": "floatBufferViews",
      "target": 34963
    },
    {
      "buffer": 0,
      "byteLength": 41136,
      "byteOffset": 64836,
      "byteStride": 8,
      "name": "floatBufferViews",
      "target": 34962
    },
    {
      "buffer": 0,
      "byteLength": 123408,
      "byteOffset": 105972,
      "byteStride": 12,
      "name": "floatBufferViews",
      "target": 34962
    },
    {
      "buffer": 0,
      "byteLength": 1360,
      "byteOffset": 229380,
      "byteStride": 16,
      "name": "floatBufferViews",
      "target": 34962
    },
    {
      "buffer": 0,
      "byteLength": 68,
      "byteOffset": 230740,
      "name": "floatBufferViews"
    },
    {
      "buffer": 0,
      "byteLength": 204,
      "byteOffset": 230808,
      "byteStride": 12,
      "name": "floatBufferViews"
    }
  ],
  "buffers": [
    {
      "byteLength": 231012,
      "uri": "scene.bin"
    }
  ],
  "images": [
    {
      "uri": "textures/03_-_Default_baseColor.png"
    },
    {
      "uri": "textures/03_-_Default_metallicRoughness.png"
    },
    {
      "uri": "textures/07_-_Default_baseColor.png"
    },
    {
      "uri": "textures/07_-_Default_normal.png"
    },
    {
      "uri": "textures/08_-_Default_baseColor.png"
    },
    {
      "uri": "textures/08_-_Default_emissive.png"
    }
  ],
  "materials": [
    {
      "doubleSided": true,
      "name": "01_-_Default",
      "pbrMetallicRoughness": {
        "baseColorFactor": [
          0.490196,
          0.486275,
          0.490196,
          1.0
        ],
        "roughnessFactor": 0.4165151423
      }
    },
    {
      "doubleSided": true,
      "name": "03_-_Default",
      "pbrMetallicRoughness": {
        "baseColorTexture": {
          "index": 0
        },
        "metallicFactor": 0.9713636456,
        "metallicRoughnessTexture": {
          "index": 1
        }
      }
    },
    {
      "doubleSided": true,
      "name": "07_-_Default",
      "normalTexture": {
        "index": 3
      },
      "pbrMetallicRoughness": {
        "baseColorTexture": {
          "index": 2
        },
        "roughnessFactor": 0.42863635440000003
      }
    },
    {
      "doubleSided": true,
      "name": "02_-_Default",
      "pbrMetallicRoughness": {
        "baseColorFactor": [
          0.0,
          0.0,
          0.0,
          1.0
        ],
        "metallicFactor": 0.7410606153,
        "roughnessFactor": 0.8929713596
      }
    },
    {
      "doubleSided": true,
      "emissiveFactor": [
        1.0,
        1.0,
        1.0
      ],
      "emissiveTexture": {
        "index": 5
      },
      "name": "08_-_Default",
      "pbrMetallicRoughness": {
        "baseColorTexture": {
          "index": 4
        },
        "metallicFactor": 0.0,
        "roughnessFactor": 0.1680302938
      }
    },
    {
      "doubleSided": true,
      "name": "09_-_Default",
      "pbrMetallicRoughness": {
        "baseColorFactor": [
          0.341060615308357,
          0.341060615308357,
          0.341060615308357,
          1.0
        ],
        "baseColorTexture": {
          "index": 4
        },
        "roughnessFactor": 0.8929713596
      }
    }
  ],
  "meshes": [
    {
      "name": "Flashlight_01 - Default_0",
      "primitives": [
        {
          "attributes": {
            "NORMAL": 1,
            "POSITION": 0,
            "TEXCOORD_0": 2
          },
          "indices": 3,
          "material": 0,
          "mode": 4
        }
      ]
    },
    {
      "name": "Flashlight_03 - Default_0",
      "primitives": [
        {
          "attributes": {
            "NORMAL": 5,
            "POSITION": 4,
            "TEXCOORD_0": 6
          },
          "indices": 7,
          "material": 1,
          "mode": 4
        }
      ]
    },
    {
      "name": "Flashlight_07 - Default_0",
      "primitives": [
        {
          "attributes": {
            "NORMAL": 9,
            "POSITION": 8,
            "TANGENT": 10,
            "TEXCOORD_0": 11
          },
          "indices": 12,
          "material": 2,
          "mode": 4
        }
      ]
    },
    {
      "name": "Flashlight_02 - Default_0",
      "primitives": [
        {
          "attributes": {
            "NORMAL": 14,
            "POSITION": 13,
            "TEXCOORD_0": 15
          },
          "indices": 16,
          "material": 3,
          "mode": 4
        }
      ]
    },
    {
      "name": "Flashlight_08 - Default_0",
      "primitives": [
        {
          "attributes": {
            "NORMAL": 18,
            "POSITION": 17,
            "TEXCOORD_0": 19
          },
          "indices": 20,
          "material": 4,
          "mode": 4
        }
      ]
    },
    {
      "name": "Button_02 - Default_0",
      "primitives": [
        {
          "attributes": {
            "NORMAL": 22,
            "POSITION": 21,
            "TEXCOORD_0": 23
          },
          "indices": 24,
          "material": 3,
          "mode": 4
        }
      ]
    },
    {
      "name": "Light_09 - Default_0",
      "primitives": [
        {
          "attributes": {
            "NORMAL": 26,
            "POSITION": 25,
            "TEXCOORD_0": 27
          },
          "indices": 28,
          "material": 5,
          "mode": 4
        }
      ]
    }
  ],
  "nodes": [
    {
      "children": [
        1
      ],
      "matrix": [
        -0.907253623008728,
        -0.42058393359184265,
        -9.33883933722163e-17,
        0.0,
        0.42015117406845093,
        -0.9063200950622559,
        -0.045353226363659106,
        0.0,
        0.01907483860850334,
        -0.04114687815308593,
        0.9989709854125977,
        0.0,
        -10.121233940124512,
        439.344696044922,
        -421.98370361328114,
        1.0
      ],
      "name": "Sketchfab_model"
    },
    {
      "children": [
        2
      ],
      "matrix": [
        1.0,
        0.0,
        0.0,
        0.0,
        0.0,
        0.0,
        1.0,
        0.0,
        0.0,
        -1.0,
        0.0,
        0.0,
        0.0,
        0.0,
        0.0,
        1.0
      ],
      "name": "Flashlight.FBX"
    },
    {
      "children": [
        3
      ],
      "name": "Object_2"
    },
    {
      "children": [
        4,
        11,
        13
      ],
      "name": "RootNode"
    },
    {
      "children": [
        5
      ],
      "name": "Flashlight",
      "rotation": [
        -0.7071068286895752,
        -0.0,
        0.0,
        0.7071068286895752
      ],
      "translation": [
        -1.0973862409591675,
        422.48809814453125,
        0.07316222041845322
      ]
    },
    {
      "children": [
        6,
        7,
        8,
        9,
        10
      ],
      "matrix": [
        1.0,
        0.0,
        -0.0,
        0.0,
        0.0,
        1.0,
        0.0,
        0.0,
        0.0,
        0.0,
        1.0,
        0.0,
        -3.814697265625e-06,
        7.62939453125e-06,
        -422.48809814453125,
        1.0
      ],
      "name": "Object_5"
    },
    {
      "mesh": 0,
      "name": "Flashlight_01 - Default_0"
    },
    {
      "mesh": 1,
      "name": "Flashlight_03 - Default_0"
    },
    {
      "mesh": 2,
      "name": "Flashlight_07 - Default_0"
    },
    {
      "mesh": 3,
      "name": "Flashlight_02 - Default_0"
    },
    {
      "mesh": 4,
      "name": "Flashlight_08 - Default_0"
    },
    {
      "children": [
        12
      ],
      "name": "Button",
      "rotation": [
        8.146034247147327e-08,
        0.0,
        0.0,
        1.0
      ],
      "translation": [
        -1.051034927368164,
        165.08299255371094,
        7.2160073614213616e-06
      ]
    },
    {
      "mesh": 5,
      "name": "Button_02 - Default_0"
    },
    {
      "children": [
        14
      ],
      "name": "Light",
      "rotation": [
        -0.7071068286895752,
        -0.0,
        0.0,
        0.7071068286895752
      ],
      "translation": [
        -1.0973862409591675,
        27.060958862304688,
        0.07315431535243988
      ]
    },
    {
      "children": [
        15
      ],
      "matrix": [
        1.0,
        0.0,
        -0.0,
        0.0,
        0.0,
        1.0,
        0.0,
        0.0,
        0.0,
        0.0,
        1.0,
        0.0,
        -3.814697265625e-06,
        0.0,
        -13.161529541015625,
        1.0
      ],
      "name": "Object_14"
    },
    {
      "mesh": 6,
      "name": "Light_09 - Default_0"
    }
  ],
  "samplers": [
    {
      "magFilter": 9729,
      "minFilter": 9987,
      "wrapS": 10497,
      "wrapT": 10497
    }
  ],
  "scene": 0,
  "scenes": [
    {
      "name": "Sketchfab_Scene",
      "nodes": [
        0
      ]
    }
  ],
  "textures": [
    {
      "sampler": 0,
      "source": 0
    },
    {
      "sampler": 0,
      "source": 1
    },
    {
      "sampler": 0,
      "source": 2
    },
    {
      "sampler": 0,
      "source": 3
    },
    {
      "sampler": 0,
      "source": 4
    },
    {
      "sampler": 0,
      "source": 5
    }
  ]
}
